<?xml version="1.0" standalone="no"?>
<!DOCTYPE svg PUBLIC "-//W3C//DTD SVG 20010904//EN"
 "http://www.w3.org/TR/2001/REC-SVG-20010904/DTD/svg10.dtd">
<svg version="1.0" xmlns="http://www.w3.org/2000/svg"
 width="300.000000pt" height="300.000000pt" viewBox="0 0 300.000000 300.000000"
 preserveAspectRatio="xMidYMid meet">

<g transform="translate(0.000000,300.000000) scale(0.100000,-0.100000)"
fill="#000000" stroke="none">
<path d="M497 2613 c-4 -3 -7 -434 -7 -957 l0 -951 162 -162 162 -163 848 0
848 0 0 296 0 297 -159 158 -159 159 -371 0 -371 0 0 504 0 503 -162 162 -162
161 -311 0 c-172 0 -315 -3 -318 -7z m265 -1070 c11 -23 20 -28 48 -28 28 0
37 5 48 28 12 25 17 27 80 27 37 0 73 -4 79 -8 10 -6 13 -95 12 -380 l-1 -372
-83 0 c-80 0 -83 1 -89 25 -8 33 -50 44 -76 20 -11 -10 -20 -24 -20 -32 0 -10
-20 -13 -80 -13 l-80 0 0 373 c0 206 3 377 7 380 3 4 37 7 74 7 64 0 69 -2 81
-27z m1329 -428 c-1 -33 -4 -61 -5 -62 -1 -1 -215 -3 -476 -3 l-475 -2 -3 66
-3 66 482 -2 483 -3 -3 -60z m-1 -240 l0 -65 -452 -1 c-249 -1 -464 -2 -478
-3 -24 -1 -25 2 -28 67 l-3 67 481 0 480 0 0 -65z"/>
<path d="M652 1414 c-43 -30 -21 -94 32 -94 22 0 46 28 46 55 0 20 -32 55 -50
55 -3 0 -16 -7 -28 -16z"/>
<path d="M900 1401 c-15 -28 -12 -46 8 -64 25 -23 48 -21 73 4 21 21 19 56 -5
71 -22 15 -65 8 -76 -11z"/>
<path d="M775 1224 c-21 -21 -16 -63 10 -80 44 -29 99 40 64 82 -15 19 -54 18
-74 -2z"/>
<path d="M923 1049 c-51 -19 -32 -99 23 -99 30 0 62 45 48 68 -18 27 -47 41
-71 31z"/>
<path d="M642 1038 c-20 -20 -15 -66 9 -78 49 -27 96 20 69 69 -12 24 -58 29
-78 9z"/>
</g>
</svg>
